<svg width="465" height="567" viewBox="0 0 465 567" fill="none" xmlns="http://www.w3.org/2000/svg">
<g clip-path="url(#clip0_213_60)">
<path d="M276.317 302.975C276.317 279.328 273.944 244.658 275.045 211.131C264.815 209.076 255.336 207.567 246.304 206.48C246.033 221.191 245.323 242.324 244.464 262.292C234.505 240.591 221.099 217.715 211.336 204.443C201.949 204.508 192.736 205.072 183.388 206.059C183.248 208.572 183.104 211.086 182.928 213.598C180.496 248.34 166.516 294.411 150.563 330.306C134.609 366.2 107.689 384.147 101.208 387.638C94.7267 391.127 72.2921 409.074 84.2574 434.002C96.2227 458.928 126.633 459.427 140.592 444.47C154.551 429.514 151.56 407.08 153.555 389.631C155.548 372.182 166.516 359.222 174.991 340.775C181.425 326.771 196.176 289.196 204.66 248.138C217.116 270.566 229.44 305.568 239.631 338.248C238.253 351.24 236.232 363.53 232.768 372.476C226.153 389.564 245.219 419.884 278.408 409.962C311.597 400.039 304.431 363.106 292.855 352.08C281.279 341.056 276.317 338.21 276.317 302.975Z" fill="#00B1EB"/>
<path d="M314.931 27.0871C296.903 27.0871 276.908 42.4924 276.908 64.1257C276.908 79.0417 274.656 94.1271 269.489 109.784C246.631 99.0937 221.209 98.9057 202.875 101.806C197.915 77.5244 195.767 71.2057 200.579 53.7084C205.401 36.1684 206.912 18.2217 186.465 5.75774C166.017 -6.70626 141.091 1.27107 133.612 27.6937C126.135 54.1151 148.165 61.0297 158.041 75.5524C181.059 109.404 185.797 155.523 183.584 202.211C192.708 201.254 201.705 200.7 210.86 200.619C212.619 169.742 210.912 147.754 208.185 130.007C220.625 129.032 241.824 130.911 257.636 138.002C248.637 158.639 246.425 176.343 246.425 195.891C246.425 197.842 246.403 200.164 246.368 202.662C255.419 203.752 264.924 205.27 275.181 207.332C275.803 192.218 277.173 177.427 279.857 164.096C288.708 120.175 306.08 110.998 323.453 97.2297C340.825 83.4644 348.036 78.8751 348.036 60.8484C348.036 42.8204 332.959 27.0871 314.931 27.0871Z" fill="#00B1EB"/>
<path d="M141.092 320.558C156.952 283.63 168.408 241.83 170.449 212.725C170.621 210.268 171.044 202.421 171.081 201.624C172.738 166.722 169.932 138.081 162.72 114.848C150.716 121.537 139.858 130.041 130.649 140.114C123.562 136.486 114.82 131.781 104.18 125.668C68.4582 105.137 68.8689 86.6611 60.5075 77.6278C52.1462 68.5944 13.4382 55.8664 2.35287 90.3558C-8.7338 124.845 22.0609 138.806 38.4849 139.216C54.1982 139.609 69.2435 137.444 114.737 161.701C103.834 180.376 97.4809 202.03 97.4809 225.216C97.4809 232.289 98.2062 239.18 99.3235 245.937C73.3902 248.036 58.7022 240.586 46.2862 240.222C32.3262 239.81 14.6702 248.433 14.2595 277.996C13.8489 307.558 52.8555 317.413 63.1195 310.433C71.4875 304.744 89.4075 286.234 108.201 276.028C115.776 293.23 127.1 308.39 141.092 320.558Z" fill="#AECC53"/>
<path d="M439.221 200.394C454.414 199.984 472.478 179.044 461.393 149.892C450.306 120.74 416.638 128.13 398.984 146.608C383.22 163.105 360.596 171.71 339.853 175.42C332.246 157.714 320.668 142.146 306.304 129.713C300.496 137.797 295.694 148.838 292.121 166.57C289.806 178.052 288.356 191.552 287.681 207.853C287.649 208.62 287.568 211.038 287.55 211.538C286.868 232.238 287.544 253.562 288.14 272.365C288.5 283.688 288.83 294.097 288.83 302.978C288.83 318.882 289.576 326.478 291.785 331.557C310.314 319.656 325.562 303.078 335.79 283.444C350.665 293.673 374.354 317.281 379.686 331.373C385.434 346.565 421.566 353.134 439.221 325.625C456.877 298.114 425.672 272.248 400.626 271.426C376.77 270.645 364.389 267.9 345.888 257.006C348.53 246.833 350.082 236.217 350.082 225.216C350.082 217.986 349.338 210.946 348.172 204.049C357.64 200.87 371.784 196.348 379.274 195.057C391.182 193.004 424.029 200.805 439.221 200.394Z" fill="#AECC53"/>
<path d="M21.7582 565.794H5.43689V488.943H21.9636L34.0476 524.581L35.9089 531.397H36.1142L35.8049 523.65V488.943H52.1262V565.794H35.7009L23.5116 530.57L21.7582 523.858H21.4489L21.7582 531.501V565.794Z" fill="#AECC53"/>
<path d="M97.4691 565.794H60.5931V488.943H96.8478V503.611H77.2238V519.725H94.5771V533.771H77.2238V550.921H97.4691V565.794Z" fill="#AECC53"/>
<path d="M120.399 565.794H103.769V488.943H139.613V503.715H120.399V521.069H137.238V535.838H120.399V565.794Z" fill="#AECC53"/>
<path d="M181.963 524.993V489.152H186.508V565.795H181.963V529.331H154.177V565.795H149.528V489.152H154.177V524.993H181.963Z" fill="#00B1EB"/>
<path d="M218.005 565.794H213.463V538.731L196.728 489.153H201.687L215.321 530.985L215.733 532.845H215.839L216.252 530.985L229.885 489.153H234.74L218.005 538.731V565.794Z" fill="#00B1EB"/>
<path d="M244.346 559.543C241.249 554.624 239.699 546.824 239.699 536.147V519.208C239.699 508.331 241.229 500.409 244.294 495.452C247.359 490.496 252.334 488.016 259.219 488.016C265.83 488.016 270.441 489.927 273.061 493.749C275.677 497.571 276.985 502.236 276.985 507.744V511.977H272.442V507.744C272.442 503.129 271.493 499.396 269.602 496.537C267.706 493.681 264.246 492.249 259.219 492.249C254.055 492.249 250.267 494.368 247.857 498.604C245.445 502.837 244.242 509.603 244.242 518.899V536.355C244.242 545.583 245.445 552.28 247.857 556.445C250.267 560.613 254.055 562.696 259.219 562.696C263.974 562.696 267.465 561.06 269.703 557.789C271.942 554.519 273.061 549.095 273.061 541.519V532.224H259.118V527.991H277.398V541.107C277.398 549.025 276.123 555.309 273.579 559.956C271.031 564.605 266.277 566.929 259.323 566.929C252.438 566.929 247.443 564.469 244.346 559.543Z" fill="#00B1EB"/>
<path d="M295.891 565.795H291.241V489.153H295.891V565.795Z" fill="#00B1EB"/>
<path d="M332.246 483.265H329.044L320.37 471.177H325.328L332.246 483.265ZM344.126 565.793H313.24V489.152H344.022V493.284H317.89V524.271H340.406V528.504H317.89V561.557H344.126V565.793Z" fill="#00B1EB"/>
<path d="M360.031 565.794H355.486V489.153H361.064L387.816 553.813L388.85 556.706H388.954L388.85 552.778V489.153H393.395V565.794H387.919L361.064 500.929L360.135 498.239H360.031V565.794Z" fill="#00B1EB"/>
<path d="M441.735 565.794H410.85V489.153H441.631V493.283H415.499V524.27H438.017V528.503H415.499V561.557H441.735V565.794Z" fill="#00B1EB"/>
</g>
<defs>
<clipPath id="clip0_213_60">
<rect width="464.819" height="566.93" fill="white"/>
</clipPath>
</defs>
</svg>
